# xmcd
# 
# Track frame offsets:
#     150
#     15513
#     40938
# 
# Disc length: 744
# 
# Revision: 1
# Processed by: cddbd v1.5.2PL0 Copyright (c) Steve Scherf et al.
# Submitted via: fre:ac v1.0.31
# 
DISCID=1802e603
DTITLE=Klostertaler - Drei Tiroler im Gummiboot
DYEAR=2000
DGENRE=Volksmusik
TTITLE0=Drei Tiroler im Gummiboot (Radioversion)
TTITLE1=Drei Tiroler im Gummiboot ( Extended.-Version)
TTITLE2=Drei Tiroler im Gummiboot ( karaoke)
EXTD=<http://www.hit-radio24.de>
EXTT0=
EXTT1=
EXTT2=
PLAYORDER=
